<?xml version="1.0" encoding="UTF-8" standalone="no"?>
<!-- Created with Inkscape (http://www.inkscape.org/) -->

<svg
   xmlns:dc="http://purl.org/dc/elements/1.1/"
   xmlns:cc="http://creativecommons.org/ns#"
   xmlns:rdf="http://www.w3.org/1999/02/22-rdf-syntax-ns#"
   xmlns:svg="http://www.w3.org/2000/svg"
   xmlns="http://www.w3.org/2000/svg"
   xmlns:sodipodi="http://sodipodi.sourceforge.net/DTD/sodipodi-0.dtd"
   xmlns:inkscape="http://www.inkscape.org/namespaces/inkscape"
   width="960"
   height="326"
   viewBox="0 0 253.99999 86.254169"
   version="1.1"
   id="svg8"
   inkscape:version="0.92.5 (2060ec1f9f, 2020-04-08)"
   sodipodi:docname="city.svg">
  <defs
     id="defs2" />
  <sodipodi:namedview
     id="base"
     pagecolor="#ffffff"
     bordercolor="#666666"
     borderopacity="1.0"
     inkscape:pageopacity="0.0"
     inkscape:pageshadow="2"
     inkscape:zoom="0.98994949"
     inkscape:cx="606.1557"
     inkscape:cy="7.019279"
     inkscape:document-units="mm"
     inkscape:current-layer="layer1"
     showgrid="false"
     inkscape:window-width="1719"
     inkscape:window-height="1385"
     inkscape:window-x="1720"
     inkscape:window-y="0"
     inkscape:window-maximized="0"
     units="px"
     inkscape:snap-bbox="true"
     showguides="true"
     inkscape:guide-bbox="true"
     inkscape:snap-global="true">
    <sodipodi:guide
       position="254.03968,43.798794"
       orientation="0,1"
       id="guide875"
       inkscape:locked="false" />
    <sodipodi:guide
       position="163.81091,62.518258"
       orientation="0,1"
       id="guide885"
       inkscape:locked="false" />
  </sodipodi:namedview>
  <metadata
     id="metadata5">
    <rdf:RDF>
      <cc:Work
         rdf:about="">
        <dc:format>image/svg+xml</dc:format>
        <dc:type
           rdf:resource="http://purl.org/dc/dcmitype/StillImage" />
        <dc:title></dc:title>
      </cc:Work>
    </rdf:RDF>
  </metadata>
  <g
     inkscape:label="Layer 1"
     inkscape:groupmode="layer"
     id="layer1"
     transform="translate(0,-210.74582)">
    <path
       style="fill:#16161d;fill-opacity:1;stroke:none;stroke-width:0.07227241px;stroke-linecap:butt;stroke-linejoin:miter;stroke-opacity:1"
       d="m 0.04480794,269.0762 c 2.50833046,1.5769 5.96033666,4.08183 7.65945716,2.38271 0.7115738,-0.71158 2.5419739,-0.10289 3.5042969,-0.58405 0.66369,-0.33185 0.393196,-1.26927 0.876069,-1.75215 0.973417,-0.97341 3.114929,-0.77872 4.088342,-1.75215 0.632525,-0.63251 2.433595,1.84954 2.628222,2.04417 0.22536,0.22537 0.804029,-0.80403 0.876075,-0.87607 0.340698,-0.34069 1.119427,-0.24336 1.460126,-0.58404 1.170748,-1.17076 3.869359,0.94911 4.088342,1.16809 0.552579,0.55258 2.691172,-0.58405 3.504297,-0.58405 1.243958,0 8.384606,1.83626 9.052762,1.1681 2.173666,-2.17366 8.695396,0.35736 9.636816,-0.58405 0.365657,-0.36567 9.480447,-3.07661 9.636805,-2.92025 0.876075,0.87608 2.336199,1.1681 3.212274,2.04418 0.486707,0.4867 0.681391,1.26544 1.168098,1.75215 0.632721,0.63271 2.287525,0.24334 2.920246,0.87607 0.757022,0.75703 2.768177,0.15207 3.212267,-0.29203 0.730061,-0.73005 -0.146013,-3.06625 0.584052,-3.79632 0.586951,-0.58695 2.133735,-1.1681 3.212268,-1.1681 0.228658,0 1.314416,-0.14571 1.460127,0 0.827399,0.82741 3.844989,-0.53537 4.672394,0.29203 0.53537,0.53538 1.800818,0.34069 2.336186,0.87607 2.09567,2.09568 3.913481,0.29203 6.716573,0.29203 0.891233,0 1.05426,2.15801 2.920246,0.29202 0.355629,-0.35563 3.198621,-0.0273 3.50429,0.58406 0.03214,0.0643 2.810846,0.10939 2.920248,0 0.632719,-0.63273 1.411448,-1.11944 2.044177,-1.75216 0.813066,-0.81306 13.979906,5.29372 14.893256,4.38037 0.8274,-0.82739 3.26094,-0.0487 4.08834,-0.87607 0.61133,-0.61133 7.24851,-4.72451 7.30062,-4.67239 0.92475,0.92474 1.70348,1.9955 2.62823,2.92025 0.99598,0.99598 8.1163,-0.64442 10.22083,1.46011 1.02209,1.02209 5.11043,-1.02208 6.13252,0 1.5088,1.50879 5.20777,0.8274 6.71657,2.3362 0.68582,0.68582 1.89828,-1.31423 2.04418,-1.46012 0.87607,-0.87608 2.62822,-0.87608 3.50429,-1.75215 1.17513,-1.17512 6.64415,2.70063 7.30062,2.04417 0.68138,-0.68138 1.07076,-1.6548 1.75214,-2.33619 0.47274,-0.47274 2.4695,-0.29202 3.21227,-0.29202 0.34077,0 3.46454,0.91583 4.08836,0.29202 1.2984,-1.2984 6.31357,-1.27906 7.59263,0 0.84889,0.84891 5.87793,-1.13064 7.59262,0.58405 0.385,0.38499 3.19136,0 3.79633,0 1.06532,0 2.33824,-0.87813 2.92024,-1.46013 0.53538,-0.53538 2.67689,0.53539 3.21228,0 0.90231,-0.90232 6.72887,-1.18039 7.88466,-2.33619 1.5,-1.49999 6.78693,1.8225 7.00859,2.04417 1.05631,1.05629 7.7995,-0.49888 8.1767,-0.87608 0.58405,-0.58405 2.04417,-0.29202 2.62822,-0.87607 0.12147,-0.12146 0.44125,-2.47899 1.46012,-1.46012 1.55746,1.55746 4.28304,1.94682 5.8405,3.50429 0.53537,0.53539 2.67687,-0.53538 3.21225,0 0.15808,0.15809 2.00836,1.78796 2.92024,0.87608 0.30418,-0.30419 4.52555,-2.77508 5.8405,-1.46013 0.29202,0.29203 0.29202,0.87608 0.58404,1.16811 1.49902,1.49901 4.87736,-1.83922 6.13252,-0.58406 1.37657,1.37658 2.68526,1.70564 5.41515,1.70564 l 7.14192,69.84041 H -4.121708 Z"
       id="path8948"
       inkscape:connector-curvature="0"
       sodipodi:nodetypes="cccccccccsccccccccscccssccccccsscsccccscccsscccscscccccccccc" />
    <path
       style="fill:#1f1f29;fill-opacity:1;stroke:none;stroke-width:0.44201574px;stroke-linecap:butt;stroke-linejoin:miter;stroke-opacity:1"
       d="M -0.94670801,281.25457 H 3.4940509 l -0.03365,-1.11627 2.567393,-0.22324 0.3348789,-1.79869 0.3348773,1.68706 0.8930066,0.22324 0.3348773,2.5674 4.130155,-0.1116 v -4.57667 h 4.465033 v -2.5674 h 5.692919 v 2.34415 h 9.488196 l 1.004633,2.5674 h 1.227885 v -2.23252 h 5.246414 l -0.294021,-1.09729 h 4.535802 v 1.09729 h 2.232515 v 3.34877 l 0.6528,-0.17491 v -2.9506 h 2.472724 l -0.210296,-0.78485 h 4.675333 l 0.250653,0.43414 h 5.442263 v 5.03899 h 6.139422 v -2.12089 h 4.130155 v 2.00926 h 4.241782 v -2.23252 h 2.790645 v -2.48896 l 0.558128,2.37733 h 1.451138 l 0.405647,1.51389 0.914902,-0.24514 v -4.39426 h 7.609518 l 2.673011,1.54326 v 2.69852 h 4.805918 v -1.22788 c 0,0 1.89764,-0.27908 1.89764,0 v -1.50696 h 4.130152 v -0.66975 h 0.94883 v 0.61394 h 5.58129 l 0.23821,0.88899 h 3.16638 v 0.67378 h 2.90227 v -8.26032 h 4.7441 v -1.50694 h 13.17184 v -2.23252 h 5.02317 v -2.51158 h 3.51621 v 1.2837 h 1.56276 v 1.22788 h 5.97198 v 12.61371 h 4.01854 l 0.30523,1.13916 h 1.9831 v -4.59956 l 1.29537,-0.34709 v -3.16911 h 3.95104 v -13.91855 h 4.7441 v -1.32112 h 11.45933 l 0.11837,1.25073 h 2.54297 v 21.35623 h 5.69291 2.75728 l 2.68365,1.91357 h 2.68367 v -1.89436 l 1.59411,-0.92035 h 2.35246 l 2.15721,2.15719 h 9.52463 v -1.63149 h 4.97269 v 1.65755 h 1.49969 l 0.4158,1.55181 h 2.18894 v -1.55181 h 1.65756 v -1.18396 h 6.47236 v -11.76078 h 2.28902 v -0.86825 h 4.10443 v 1.18398 h 3.07833 v 5.68305 h 7.18276 l 0.48028,5.55222 h 13.15149 v 29.39622 H -1.0583332 Z"
       id="path873"
       inkscape:connector-curvature="0"
       sodipodi:nodetypes="cccccccccccccccccccccccccccccccccccccccccccccccccccccccccccccccccccccccccccccccccccccccccccccccccccccccccccccccccccccccc" />
  </g>
</svg>
